<?xml version="1.0" encoding="UTF-8"?><!DOCTYPE svg PUBLIC "-//W3C//DTD SVG 1.1//EN" "http://www.w3.org/Graphics/SVG/1.1/DTD/svg11.dtd"><svg xmlns="http://www.w3.org/2000/svg" xmlns:xlink="http://www.w3.org/1999/xlink"><defs>
<clipPath id="clip0">
<rect width="128" height="24" fill="white"/>
</clipPath>

<clipPath id="clip0">
<rect width="30" height="32" fill="white"/>
</clipPath>

<clipPath id="clip0">
<rect width="134" height="56" fill="white"/>
</clipPath>

<clipPath id="clip0">
<rect width="70" height="97" fill="white"/>
</clipPath>

    <clipPath id="clip0">
      <path fill="#fff" d="M0 0h29v31H0z"/>
    </clipPath>
  
    <clipPath id="clip0">
      <path fill="#fff" d="M0 0h202v59H0z"/>
    </clipPath>
  </defs><symbol id="academy-logo" viewBox="0 0 163 34">
<path d="M1.28125 21V9.54688H2.79688V14.25H8.75V9.54688H10.2656V21H8.75V15.6016H2.79688V21H1.28125ZM15.7109 21V10.8984H11.9375V9.54688H21.0156V10.8984H17.2266V21H15.7109ZM22.5312 21V9.54688H24.8125L27.5234 17.6562C27.7734 18.4115 27.9557 18.9766 28.0703 19.3516C28.2005 18.9349 28.4036 18.3229 28.6797 17.5156L31.4219 9.54688H33.4609V21H32V11.4141L28.6719 21H27.3047L23.9922 11.25V21H22.5312ZM35.8438 21V9.54688H37.3594V19.6484H43V21H35.8438ZM46.5234 21L50.9219 9.54688H52.5547L57.2422 21H55.5156L54.1797 17.5312H49.3906L48.1328 21H46.5234ZM49.8281 16.2969H53.7109L52.5156 13.125C52.151 12.1615 51.8802 11.3698 51.7031 10.75C51.5573 11.4844 51.3516 12.2135 51.0859 12.9375L49.8281 16.2969ZM63.6875 17.9609L65.0703 18.1406C64.9193 19.0938 64.5312 19.8411 63.9062 20.3828C63.2865 20.9193 62.5234 21.1875 61.6172 21.1875C60.4818 21.1875 59.5677 20.8177 58.875 20.0781C58.1875 19.3333 57.8438 18.2682 57.8438 16.8828C57.8438 15.987 57.9922 15.2031 58.2891 14.5312C58.5859 13.8594 59.0365 13.3568 59.6406 13.0234C60.25 12.6849 60.9115 12.5156 61.625 12.5156C62.526 12.5156 63.263 12.7448 63.8359 13.2031C64.4089 13.6562 64.776 14.3021 64.9375 15.1406L63.5703 15.3516C63.4401 14.7943 63.2083 14.375 62.875 14.0938C62.5469 13.8125 62.1484 13.6719 61.6797 13.6719C60.9714 13.6719 60.3958 13.9271 59.9531 14.4375C59.5104 14.9427 59.2891 15.7448 59.2891 16.8438C59.2891 17.9583 59.5026 18.7682 59.9297 19.2734C60.3568 19.7786 60.9141 20.0312 61.6016 20.0312C62.1536 20.0312 62.6146 19.862 62.9844 19.5234C63.3542 19.1849 63.5885 18.6641 63.6875 17.9609ZM71.6875 19.9766C71.1667 20.4193 70.6641 20.7318 70.1797 20.9141C69.7005 21.0964 69.1849 21.1875 68.6328 21.1875C67.7214 21.1875 67.0208 20.9661 66.5312 20.5234C66.0417 20.0755 65.7969 19.5052 65.7969 18.8125C65.7969 18.4062 65.888 18.0365 66.0703 17.7031C66.2578 17.3646 66.5 17.0938 66.7969 16.8906C67.099 16.6875 67.4375 16.5339 67.8125 16.4297C68.0885 16.3568 68.5052 16.2865 69.0625 16.2188C70.1979 16.0833 71.0339 15.9219 71.5703 15.7344C71.5755 15.5417 71.5781 15.4193 71.5781 15.3672C71.5781 14.7943 71.4453 14.3906 71.1797 14.1562C70.8203 13.8385 70.2865 13.6797 69.5781 13.6797C68.9167 13.6797 68.4271 13.7969 68.1094 14.0312C67.7969 14.2604 67.5651 14.6693 67.4141 15.2578L66.0391 15.0703C66.1641 14.4818 66.3698 14.0078 66.6562 13.6484C66.9427 13.2839 67.3568 13.0052 67.8984 12.8125C68.4401 12.6146 69.0677 12.5156 69.7812 12.5156C70.4896 12.5156 71.0651 12.599 71.5078 12.7656C71.9505 12.9323 72.276 13.1432 72.4844 13.3984C72.6927 13.6484 72.8385 13.9661 72.9219 14.3516C72.9688 14.5911 72.9922 15.0234 72.9922 15.6484V17.5234C72.9922 18.8307 73.0208 19.6589 73.0781 20.0078C73.1406 20.3516 73.2604 20.6823 73.4375 21H71.9688C71.8229 20.7083 71.7292 20.3672 71.6875 19.9766ZM71.5703 16.8359C71.0599 17.0443 70.2943 17.2214 69.2734 17.3672C68.6953 17.4505 68.2865 17.5443 68.0469 17.6484C67.8073 17.7526 67.6224 17.9062 67.4922 18.1094C67.362 18.3073 67.2969 18.5286 67.2969 18.7734C67.2969 19.1484 67.4375 19.4609 67.7188 19.7109C68.0052 19.9609 68.4219 20.0859 68.9688 20.0859C69.5104 20.0859 69.9922 19.9688 70.4141 19.7344C70.8359 19.4948 71.1458 19.1693 71.3438 18.7578C71.4948 18.4401 71.5703 17.9714 71.5703 17.3516V16.8359ZM80.5625 21V19.9531C80.0365 20.776 79.263 21.1875 78.2422 21.1875C77.5807 21.1875 76.9714 21.0052 76.4141 20.6406C75.862 20.276 75.4323 19.7682 75.125 19.1172C74.8229 18.4609 74.6719 17.7083 74.6719 16.8594C74.6719 16.0312 74.8099 15.2812 75.0859 14.6094C75.362 13.9323 75.776 13.4141 76.3281 13.0547C76.8802 12.6953 77.4974 12.5156 78.1797 12.5156C78.6797 12.5156 79.125 12.6224 79.5156 12.8359C79.9062 13.0443 80.224 13.3177 80.4688 13.6562V9.54688H81.8672V21H80.5625ZM76.1172 16.8594C76.1172 17.9219 76.3411 18.7161 76.7891 19.2422C77.237 19.7682 77.7656 20.0312 78.375 20.0312C78.9896 20.0312 79.5104 19.7812 79.9375 19.2812C80.3698 18.776 80.5859 18.0078 80.5859 16.9766C80.5859 15.8411 80.3672 15.0078 79.9297 14.4766C79.4922 13.9453 78.9531 13.6797 78.3125 13.6797C77.6875 13.6797 77.1641 13.9349 76.7422 14.4453C76.3255 14.9557 76.1172 15.7604 76.1172 16.8594ZM89.7656 18.3281L91.2188 18.5078C90.9896 19.3568 90.5651 20.0156 89.9453 20.4844C89.3255 20.9531 88.5339 21.1875 87.5703 21.1875C86.3568 21.1875 85.3932 20.8151 84.6797 20.0703C83.9714 19.3203 83.6172 18.2708 83.6172 16.9219C83.6172 15.526 83.9766 14.4427 84.6953 13.6719C85.4141 12.901 86.3464 12.5156 87.4922 12.5156C88.6016 12.5156 89.5078 12.8932 90.2109 13.6484C90.9141 14.4036 91.2656 15.4661 91.2656 16.8359C91.2656 16.9193 91.263 17.0443 91.2578 17.2109H85.0703C85.1224 18.1224 85.3802 18.8203 85.8438 19.3047C86.3073 19.7891 86.8854 20.0312 87.5781 20.0312C88.0938 20.0312 88.5339 19.8958 88.8984 19.625C89.263 19.3542 89.5521 18.9219 89.7656 18.3281ZM85.1484 16.0547H89.7812C89.7188 15.3568 89.5417 14.8333 89.25 14.4844C88.8021 13.9427 88.2214 13.6719 87.5078 13.6719C86.862 13.6719 86.3177 13.888 85.875 14.3203C85.4375 14.7526 85.1953 15.3307 85.1484 16.0547ZM92.9922 21V12.7031H94.25V13.8672C94.5104 13.4609 94.8568 13.1354 95.2891 12.8906C95.7214 12.6406 96.2135 12.5156 96.7656 12.5156C97.3802 12.5156 97.8828 12.6432 98.2734 12.8984C98.6693 13.1536 98.9479 13.5104 99.1094 13.9688C99.7656 13 100.62 12.5156 101.672 12.5156C102.495 12.5156 103.128 12.7448 103.57 13.2031C104.013 13.6562 104.234 14.3568 104.234 15.3047V21H102.836V15.7734C102.836 15.2109 102.789 14.8073 102.695 14.5625C102.607 14.3125 102.443 14.112 102.203 13.9609C101.964 13.8099 101.682 13.7344 101.359 13.7344C100.776 13.7344 100.292 13.9297 99.9062 14.3203C99.5208 14.7057 99.3281 15.3255 99.3281 16.1797V21H97.9219V15.6094C97.9219 14.9844 97.8073 14.5156 97.5781 14.2031C97.349 13.8906 96.974 13.7344 96.4531 13.7344C96.0573 13.7344 95.6901 13.8385 95.3516 14.0469C95.0182 14.2552 94.776 14.5599 94.625 14.9609C94.474 15.362 94.3984 15.9401 94.3984 16.6953V21H92.9922ZM106.258 24.1953L106.102 22.875C106.409 22.9583 106.677 23 106.906 23C107.219 23 107.469 22.9479 107.656 22.8438C107.844 22.7396 107.997 22.5938 108.117 22.4062C108.206 22.2656 108.349 21.9167 108.547 21.3594C108.573 21.2812 108.615 21.1667 108.672 21.0156L105.523 12.7031H107.039L108.766 17.5078C108.99 18.1172 109.19 18.7578 109.367 19.4297C109.529 18.7839 109.721 18.1536 109.945 17.5391L111.719 12.7031H113.125L109.969 21.1406C109.63 22.0521 109.367 22.6797 109.18 23.0234C108.93 23.487 108.643 23.8255 108.32 24.0391C107.997 24.2578 107.612 24.3672 107.164 24.3672C106.893 24.3672 106.591 24.3099 106.258 24.1953Z" fill="#444444"/>
<path d="M149.643 0.0157537L149.5 0L136 1.40733V26.0129L149.5 34L163 26.0129V1.40733L149.643 0.0157537ZM161.234 25.0151L149.5 31.9573L137.766 25.0151V14.9293L149.451 21.8451L149.47 23.0984L141.454 18.3548L141.443 19.5801L149.489 24.3885L149.509 25.675L141.464 20.9174L141.454 22.1427L149.5 26.9511L157.624 22.1182V20.8929V16.909L161.243 14.7595L161.234 25.0151ZM161.234 13.4519L158.015 15.3319L156.533 16.2071L149.467 12.0201L149.456 13.2454L155.496 16.818L155.443 16.8495L155.313 16.9247L154.454 17.4166L149.467 14.4689L149.456 15.6942L153.392 18.0222L152.459 18.6314L152.438 18.6436L149.467 16.902L149.456 18.1273L151.403 19.2615L149.416 20.4483L137.797 13.5762L149.435 6.61831L161.234 13.4519ZM161.234 12.2266L149.44 5.31075L137.766 12.2196V2.9897L149.5 1.76442L161.234 2.9897V12.2266Z" fill="#666666"/>
</symbol><symbol id="footer-logo" viewBox="0 0 128 24">
<g clip-path="url(#clip0)">
<path d="M1.6025 22.0513C0.468327 20.3682 -0.0946878 18.3503 -3.57628e-07 16.3077V7.79487C-0.137348 5.73031 0.390413 3.67661 1.50235 1.94872C2.60407 0.615385 4.30673 0 6.81064 0C9.31455 0 10.9171 0.615385 11.9186 1.74359C13.006 3.17255 13.5409 4.96181 13.421 6.76923V8.82051H8.5133V6.46154C8.55294 5.76385 8.45062 5.06533 8.21283 4.41026C8.08573 4.14583 7.88428 3.9264 7.6344 3.78018C7.38452 3.63395 7.09763 3.56763 6.81064 3.58974C6.10955 3.58974 5.60876 3.79487 5.40845 4.30769C5.18187 5.03643 5.08022 5.79984 5.10798 6.5641V17.5385C5.05509 18.2799 5.19324 19.0227 5.50861 19.6923C5.70892 20.2051 6.2097 20.4103 6.9108 20.4103C7.61189 20.4103 8.01252 20.2051 8.21283 19.6923C8.44055 18.9992 8.54239 18.2692 8.5133 17.5385V15.0769H13.421V17.1282C13.5228 18.9651 12.9911 20.7803 11.9186 22.2564C10.9171 23.4872 9.2144 24.1026 6.81064 24.1026C4.40689 24 2.60407 23.3846 1.6025 22.0513Z" fill="#111111"/>
<path d="M19.3302 0.307617H25.0391L29.2457 23.6922H24.6385L23.8372 18.7692H20.532L19.7308 23.6922H15.0234L19.3302 0.307617ZM23.4366 15.6922L22.2347 6.56403L21.0328 15.6922H23.4366Z" fill="#111111"/>
<path d="M32.7511 4.20505H29.3458V0.307617H41.2645V4.10249H37.8591V23.6922H32.7511V4.20505Z" fill="#111111"/>
<path d="M50.3787 0.307617H59.1925V2.76916H53.4836V10.4615H58.0908V12.8204H53.4836V21.4358H59.1925V23.7948H50.2786V0.307617H50.3787Z" fill="#111111"/>
<path d="M61.7965 0.307617H64L70.5101 15.7948V0.307617H73.1142V23.6922H71.1111L64.5007 7.69223V23.6922H61.7965V0.307617Z" fill="#111111"/>
<path d="M76.1189 0.307617H84.9327V2.76916H79.2237V10.4615H83.8309V12.8204H79.2237V21.4358H84.9327V23.7948H76.1189V0.307617Z" fill="#111111"/>
<path d="M87.5368 0.3076H92.144C93.9564 0.179397 95.7575 0.685711 97.252 1.7435C98.3537 2.66657 98.8545 4.3076 98.8545 6.46145C98.8545 9.4358 97.9531 11.282 96.0501 11.8973L99.2551 23.5897H96.1503L93.1456 12.6153H90.6416V23.5897H87.4366V0.3076H87.5368ZM91.9437 10.3589C92.9762 10.446 94.0054 10.1553 94.8482 9.53837C95.4492 9.02555 95.7496 7.99991 95.7496 6.46145C95.7774 5.69719 95.6757 4.93378 95.4492 4.20504C95.2237 3.68211 94.8366 3.24964 94.3474 2.97427C93.6576 2.65236 92.9003 2.51137 92.144 2.56401H90.7418V10.2563H91.9437V10.3589Z" fill="#111111"/>
<path d="M102.861 21.9487C101.82 20.1554 101.331 18.0821 101.458 15.9999V8.20507C101.434 6.71875 101.602 5.23567 101.959 3.79481C102.294 2.71811 102.962 1.78218 103.862 1.12815C104.981 0.450275 106.271 0.128917 107.568 0.20507C109.671 0.20507 111.174 0.71789 112.075 1.8461C113.112 3.33582 113.608 5.14977 113.477 6.9743V7.79481H110.473V7.07687C110.477 6.21789 110.41 5.36008 110.272 4.51276C110.188 3.97732 109.9 3.49792 109.471 3.17943C108.908 2.80104 108.24 2.62099 107.568 2.66661C106.85 2.61949 106.139 2.83785 105.565 3.28199C105.329 3.48529 105.137 3.73569 104.999 4.01787C104.861 4.30004 104.781 4.60805 104.764 4.92302C104.632 5.83993 104.565 6.76543 104.563 7.69225V16.4102C104.49 17.7384 104.694 19.0674 105.164 20.3076C105.565 21.1281 106.366 21.4358 107.568 21.4358C108.043 21.4964 108.524 21.4119 108.952 21.1929C109.379 20.9739 109.734 20.6302 109.972 20.2051C110.501 18.9081 110.741 17.5064 110.673 16.1025V14.4615H107.768V12.1025H113.577V23.6923H111.574L111.274 21.0256C111.011 21.9193 110.464 22.6975 109.72 23.2364C108.976 23.7753 108.078 24.0441 107.167 23.9999C106.34 24.0498 105.513 23.8885 104.761 23.5304C104.01 23.1724 103.357 22.6289 102.861 21.9487Z" fill="#111111"/>
<path d="M119.988 15.4871L115.08 0.410156H118.085L121.59 11.6922L124.995 0.410156H128L123.092 15.4871V23.6922H120.088V15.4871H119.988Z" fill="#111111"/>
</g>

</symbol><symbol id="icon-alarm" viewBox="0 0 32 33">
  <ellipse cx="21.204" cy="11.33" rx="1.087" ry="1.085" fill="#fff"/>
  <ellipse cx="10.331" cy="11.33" rx="1.087" ry="1.085" fill="#fff"/>
  <ellipse cx="10.331" cy="24.351" rx="1.087" ry="1.085" fill="#fff"/>
  <ellipse cx="15.768" cy="26.521" rx="1.087" ry="1.085" fill="#fff"/>
  <ellipse cx="7.069" cy="17.775" rx="1.087" ry="1.085" fill="#fff"/>
  <ellipse cx="24.466" cy="17.775" rx="1.087" ry="1.085" fill="#fff"/>
  <ellipse cx="21.204" cy="24.351" rx="1.087" ry="1.085" fill="#fff"/>
  <mask id="a" fill="#fff">
    <path fill-rule="evenodd" clip-rule="evenodd" d="M20.922 29.058a1.058 1.058 0 011.216.196l1.826 1.875a.682.682 0 00.977-.95l-1.357-1.394c-.426-.438-.361-1.15.098-1.552C26.324 24.92 28 21.47 28 17.614 28 10.648 22.523 5 15.768 5 9.012 5 3.536 10.648 3.536 17.614c0 3.815 1.641 7.234 4.236 9.547.452.403.513 1.11.09 1.544l-1.434 1.473a.682.682 0 10.976.951l1.88-1.93a1.058 1.058 0 011.226-.191 11.878 11.878 0 005.258 1.221c1.841 0 3.587-.42 5.154-1.17zm-5.154-.23c6.005 0 10.873-5.02 10.873-11.213S21.773 6.402 15.768 6.402c-6.005 0-10.873 5.02-10.873 11.212 0 6.193 4.868 11.213 10.873 11.213zm-.76-11.53V9.94a.781.781 0 111.563 0v8.183c0 .443-.36.803-.803.803a.76.76 0 01-.76-.76V17.298z"/>
  </mask>
  <path fill-rule="evenodd" clip-rule="evenodd" d="M20.922 29.058a1.058 1.058 0 011.216.196l1.826 1.875a.682.682 0 00.977-.95l-1.357-1.394c-.426-.438-.361-1.15.098-1.552C26.324 24.92 28 21.47 28 17.614 28 10.648 22.523 5 15.768 5 9.012 5 3.536 10.648 3.536 17.614c0 3.815 1.641 7.234 4.236 9.547.452.403.513 1.11.09 1.544l-1.434 1.473a.682.682 0 10.976.951l1.88-1.93a1.058 1.058 0 011.226-.191 11.878 11.878 0 005.258 1.221c1.841 0 3.587-.42 5.154-1.17zm-5.154-.23c6.005 0 10.873-5.02 10.873-11.213S21.773 6.402 15.768 6.402c-6.005 0-10.873 5.02-10.873 11.212 0 6.193 4.868 11.213 10.873 11.213zm-.76-11.53V9.94a.781.781 0 111.563 0v8.183c0 .443-.36.803-.803.803a.76.76 0 01-.76-.76V17.298z" fill="#fff"/>
  <path d="M9.284 29.199l2.865 2.79-2.865-2.79zm1.226-.191l1.765-3.59-1.765 3.59zm-3.106 2.121L4.54 28.34l2.865 2.79zm-.976-.95l-2.866-2.792 2.866 2.791zm17.156-1.394l-2.865 2.79 2.865-2.79zm.098-1.552l-2.635-3.009 2.635 3.01zm-15.91-.072L5.11 30.146l2.662-2.985zm.09 1.544l-2.866-2.79 2.866 2.79zm17.079 1.473l2.866-2.79-2.866 2.79zm-.977.951L21.1 33.92l2.865-2.79zm-1.825-1.875l2.865-2.79-2.866 2.79zm-1.217-.196l-1.73-3.606 1.73 3.606zm-1.65 2.987L21.1 33.92l5.731-5.582-1.826-1.874-5.731 5.58zm8.535-4.658l-1.357-1.393-5.731 5.582 1.356 1.393 5.732-5.582zm-1.49 2.855C29.807 27.186 32 22.647 32 17.614h-8c0 2.677-1.16 5.04-2.953 6.61l5.27 6.018zM32 17.614C32 8.556 24.848 1 15.768 1v8C20.199 9 24 12.74 24 17.614h8zM15.768 1C6.688 1-.464 8.556-.464 17.614h8c0-4.874 3.8-8.614 8.232-8.614V1zM-.464 17.614c0 4.98 2.147 9.477 5.574 12.532l5.324-5.97c-1.762-1.572-2.898-3.913-2.898-6.561h-8zm5.46 8.3l-1.434 1.473 5.731 5.582 1.434-1.473-5.73-5.581zm5.274 8.006l1.88-1.93-5.732-5.582-1.88 1.93 5.732 5.582zm-1.525-1.323a15.878 15.878 0 007.023 1.632v-8a7.879 7.879 0 01-3.493-.811l-3.53 7.18zm7.023 1.632c2.456 0 4.792-.56 6.884-1.565l-3.46-7.212c-1.041.499-2.198.777-3.424.777v8zm0-1.402c8.33 0 14.873-6.928 14.873-15.212h-8c0 4.1-3.192 7.212-6.873 7.212v8zM30.64 17.615c0-8.285-6.544-15.213-14.873-15.213v8c3.68 0 6.873 3.112 6.873 7.213h8zM15.768 2.402C7.438 2.402.895 9.33.895 17.614h8c0-4.1 3.192-7.212 6.873-7.212v-8zM.895 17.614c0 8.285 6.544 15.213 14.873 15.213v-8c-3.68 0-6.873-3.112-6.873-7.213h-8zm11.676-.316v.543h8v-.543h-8zm0 .543v.282h8v-.282h-8zm6.437.325v-.325h-8v.325h8zm0-.325v-.543h-8v.543h8zm0-.543V13.5h-8v3.798h8zm0-3.798V9.94h-8v3.56h8zm-6.437-3.56v3.56h8V9.94h-8zm0 3.56v3.798h8V13.5h-8zm3.219-8.34a4.781 4.781 0 00-4.782 4.78h8a3.219 3.219 0 01-3.218 3.22v-8zm-3.22 12.963a3.197 3.197 0 013.198-3.197v8a4.803 4.803 0 004.803-4.803h-8zm-.42 13.867a2.943 2.943 0 01-3.405.607l3.53-7.179c-1.826-.898-4.227-.683-5.857.99l5.731 5.582zm-8.588 1.93a4.682 4.682 0 006.708 0l-5.731-5.582a3.318 3.318 0 014.754 0L3.562 33.92zm0-6.533a4.682 4.682 0 000 6.533l5.731-5.582a3.318 3.318 0 010 4.63l-5.731-5.58zm22.888-1.393c1.343 1.38.944 3.305-.133 4.248l-5.27-6.018c-1.995 1.748-2.523 5.098-.328 7.352l5.731-5.582zM15.79 13.16a3.219 3.219 0 01-3.22-3.22h8c0-2.64-2.14-4.78-4.78-4.78v8zM5.11 30.146c-1.064-.948-1.447-2.862-.114-4.231l5.731 5.581c2.18-2.238 1.675-5.565-.293-7.32l-5.324 5.97zm22.697 3.774a4.682 4.682 0 000-6.533l-5.732 5.582a3.318 3.318 0 010-4.63l5.732 5.58zm-6.708 0a4.682 4.682 0 006.708 0l-5.732-5.582a3.318 3.318 0 014.755 0L21.1 33.92zm-5.331-18.994a3.24 3.24 0 013.24 3.24h-8a4.76 4.76 0 004.76 4.76v-8zm9.236 11.538c-1.616-1.66-3.992-1.886-5.813-1.012l3.46 7.212a2.943 2.943 0 01-3.378-.62l5.731-5.58z" fill="#fff" mask="url(#a)"/>
  <path fill="#fff" d="M15 6V2h1.5v4z"/>
  <rect x="8" y="2" width="15.5" height="1.5" rx=".75" fill="#fff"/>
</symbol><symbol id="icon-arrow-right" viewBox="0 0 24 12">
<line y1="6" x2="18" y2="6" stroke="currentColor" stroke-width="2"/>
<path d="M24 6L17.25 11.1962L17.25 0.803848L24 6Z" fill="currentColor"/>
</symbol><symbol id="icon-eat" viewBox="0 0 25 30">
<path fill-rule="evenodd" clip-rule="evenodd" d="M18.6173 0.0761497C18.991 -0.0786313 19.4211 0.00692445 19.7071 0.292922C20.6156 1.20142 21.8038 3.17065 22.7659 6.21082C23.7373 9.28039 24.5 13.5081 24.5 19C24.5 19.5523 24.0523 20 23.5 20H20V29C20 29.5523 19.5523 30 19 30C18.4477 30 18 29.5523 18 29V1.00003C18 0.595567 18.2436 0.230931 18.6173 0.0761497ZM20 18H22.4912C22.4053 13.1836 21.7051 9.48755 20.8591 6.81424C20.5807 5.93457 20.2885 5.1715 20 4.51895V18Z" fill="white"/>
<path fill-rule="evenodd" clip-rule="evenodd" d="M6 0C6.55228 0 7 0.447715 7 1V29C7 29.5523 6.55228 30 6 30C5.44772 30 5 29.5523 5 29V1C5 0.447715 5.44772 0 6 0Z" fill="white"/>
<path fill-rule="evenodd" clip-rule="evenodd" d="M1.5 0C2.05228 0 2.5 0.447715 2.5 1V6.5C2.5 7.05686 2.69203 7.81518 3.20088 8.41656C3.68001 8.98281 4.51446 9.5 5.99993 9.5C6.55221 9.5 6.99993 9.94771 6.99993 10.5C6.99993 11.0523 6.55221 11.5 5.99993 11.5C3.98547 11.5 2.56995 10.7672 1.6741 9.70844C0.807973 8.68482 0.5 7.44314 0.5 6.5V1C0.5 0.447715 0.947715 0 1.5 0Z" fill="white"/>
<path fill-rule="evenodd" clip-rule="evenodd" d="M10.5 0C9.94771 0 9.5 0.447715 9.5 1V6.5C9.5 7.05686 9.30797 7.81518 8.79912 8.41656C8.31999 8.98281 7.4854 9.5 5.99993 9.5C5.44765 9.5 5.00007 9.94771 5.00007 10.5C5.00007 11.0523 5.44765 11.5 5.99993 11.5C8.01439 11.5 9.43005 10.7672 10.3259 9.70844C11.192 8.68482 11.5 7.44314 11.5 6.5V1C11.5 0.447715 11.0523 0 10.5 0Z" fill="white"/>
</symbol><symbol id="icon-facebook" viewBox="0 0 15 29">
<path d="M14.0001 0.749756H10.5001C8.95299 0.749756 7.46925 1.45999 6.37529 2.72423C5.28133 3.98846 4.66675 5.70313 4.66675 7.49103V11.5358H1.16675V16.9288H4.66675V27.7148H9.33342V16.9288H12.8334L14.0001 11.5358H9.33342V7.49103C9.33342 7.13345 9.45633 6.79051 9.67512 6.53767C9.89392 6.28482 10.1907 6.14277 10.5001 6.14277H14.0001V0.749756Z" stroke="#666666" stroke-width="1.1" stroke-linecap="round" stroke-linejoin="round"/>
</symbol><symbol id="icon-instagram" viewBox="0 0 23 23">
<path d="M11.4775 0.0898438C13.3942 0.0898438 14.959 0.112305 16.1719 0.157227C17.2051 0.202148 18.126 0.381836 18.9346 0.696289C19.7132 0.995768 20.387 1.43001 20.9561 1.99902C21.5251 2.56803 21.9593 3.24186 22.2588 4.02051C22.5732 4.8291 22.7529 5.75 22.7979 6.7832C22.8428 7.99609 22.8652 9.56087 22.8652 11.4775C22.8652 13.3942 22.8428 14.959 22.7979 16.1719C22.7529 17.2051 22.5732 18.126 22.2588 18.9346C21.9593 19.7132 21.5251 20.387 20.9561 20.9561C20.387 21.5251 19.7132 21.9593 18.9346 22.2588C18.126 22.5732 17.2051 22.7529 16.1719 22.7978C14.959 22.8428 13.3942 22.8652 11.4775 22.8652C9.56087 22.8652 7.99609 22.8428 6.7832 22.7978C5.75 22.7529 4.8291 22.5732 4.02051 22.2588C3.24186 21.9593 2.56803 21.5251 1.99902 20.9561C1.43001 20.387 0.995768 19.7132 0.696289 18.9346C0.381836 18.126 0.202148 17.2051 0.157227 16.1719C0.112305 14.959 0.0898438 13.3942 0.0898438 11.4775C0.0898438 9.56087 0.112305 7.99609 0.157227 6.7832C0.202148 5.75 0.381836 4.8291 0.696289 4.02051C0.995768 3.24186 1.43001 2.56803 1.99902 1.99902C2.56803 1.43001 3.24186 0.995768 4.02051 0.696289C4.8291 0.381836 5.75 0.202148 6.7832 0.157227C7.99609 0.112305 9.56087 0.0898438 11.4775 0.0898438ZM11.4775 1.57227C9.486 1.57227 7.86133 1.59473 6.60352 1.63965C5.79492 1.6696 5.04622 1.81185 4.35742 2.06641C3.2793 2.51562 2.51562 3.2793 2.06641 4.35742C1.81185 5.04622 1.6696 5.79492 1.63965 6.60352C1.59473 7.86133 1.57227 9.486 1.57227 11.4775C1.57227 13.4691 1.59473 15.0937 1.63965 16.3516C1.6696 17.1602 1.81185 17.9089 2.06641 18.5977C2.51562 19.6758 3.2793 20.4395 4.35742 20.8887C5.04622 21.1432 5.79492 21.2855 6.60352 21.3154C7.86133 21.3603 9.486 21.3828 11.4775 21.3828C13.4691 21.3828 15.0938 21.3603 16.3516 21.3154C17.1602 21.2855 17.9089 21.1432 18.5977 20.8887C19.6758 20.4395 20.4395 19.6758 20.8887 18.5977C21.1432 17.9089 21.2855 17.1602 21.3154 16.3516C21.3604 15.0937 21.3828 13.4691 21.3828 11.4775C21.3828 9.486 21.3604 7.86133 21.3154 6.60352C21.2855 5.79492 21.1432 5.04622 20.8887 4.35742C20.4395 3.2793 19.6758 2.51562 18.5977 2.06641C17.9089 1.81185 17.1602 1.6696 16.3516 1.63965C15.0938 1.59473 13.4691 1.57227 11.4775 1.57227ZM11.4775 16.0371C12.7354 16.0371 13.8097 15.5916 14.7007 14.7007C15.5916 13.8097 16.0371 12.7354 16.0371 11.4775C16.0371 10.2197 15.5916 9.14534 14.7007 8.25439C13.8097 7.36344 12.7354 6.91797 11.4775 6.91797C10.2197 6.91797 9.14534 7.36344 8.25439 8.25439C7.36344 9.14534 6.91797 10.2197 6.91797 11.4775C6.91797 12.7354 7.36344 13.8097 8.25439 14.7007C9.14534 15.5916 10.2197 16.0371 11.4775 16.0371ZM11.4775 5.63769C13.0947 5.63769 14.4723 6.20671 15.6104 7.34473C16.7484 8.48275 17.3174 9.86035 17.3174 11.4775C17.3174 13.0947 16.7484 14.4723 15.6104 15.6104C14.4723 16.7484 13.0947 17.3174 11.4775 17.3174C9.86035 17.3174 8.48275 16.7484 7.34473 15.6104C6.20671 14.4723 5.6377 13.0947 5.6377 11.4775C5.6377 9.86035 6.20671 8.48275 7.34473 7.34473C8.48275 6.20671 9.86035 5.63769 11.4775 5.63769ZM18.9346 5.41309C18.9346 5.78743 18.7998 6.10563 18.5303 6.36768C18.2607 6.62972 17.9313 6.76074 17.542 6.76074C17.1676 6.76074 16.8494 6.62972 16.5874 6.36768C16.3254 6.10563 16.1943 5.78743 16.1943 5.41309C16.1943 5.02376 16.3254 4.69434 16.5874 4.4248C16.8494 4.15527 17.1676 4.02051 17.542 4.02051C17.9163 4.02051 18.242 4.15902 18.519 4.43603C18.7961 4.71305 18.9346 5.03874 18.9346 5.41309Z" fill="#666666"/>
</symbol><symbol id="icon-leaf" viewBox="0 0 30 32">
<g clip-path="url(#clip0)">
<path d="M27.8437 2.767C27.7434 2.317 27.3647 2 26.9325 2C26.9306 2 26.9287 2 26.9269 2C21.9891 2.033 9.98155 2.916 5.13374 10.38C2.61561 14.258 2.39905 19.293 4.48968 25.345C4.50561 25.392 4.53843 25.424 4.55999 25.467C3.8128 27.44 3.52311 28.753 3.51561 28.79C3.40686 29.33 3.7303 29.862 4.23655 29.978C4.30218 29.993 4.3678 30 4.43343 30C4.86561 30 5.25468 29.679 5.34936 29.21C5.36905 29.108 7.7578 18.837 16.2028 12.832C16.6341 12.526 16.7503 11.905 16.4625 11.445C16.1747 10.985 15.5934 10.86 15.1622 11.168C10.3734 14.573 7.42405 19.176 5.68968 22.824C4.44843 18.246 4.77374 14.447 6.67593 11.519C10.4194 5.755 19.2984 4.365 24.6581 4.071C23.505 5.872 22.245 9.174 22.245 15C22.245 18.12 21.4153 20.522 19.7803 22.14C17.1591 24.731 12.9009 24.974 9.78655 24.724C9.26905 24.679 8.81999 25.095 8.78061 25.646C8.74124 26.196 9.12843 26.676 9.64405 26.718C10.2675 26.769 10.9331 26.8 11.625 26.8C14.7956 26.8 18.4941 26.137 21.0544 23.606C23.0887 21.595 24.12 18.7 24.12 15.001C24.12 5.902 27.3356 3.905 27.3516 3.896C27.7416 3.687 27.9459 3.219 27.8437 2.767Z" fill="white"/>
</g>

</symbol><symbol id="icon-moving-cat" viewBox="0 0 134 56">
<g clip-path="url(#clip0)">
<path d="M123.1 5.80001C124.254 3.96309 125.789 2.39461 127.6 1.20001C128.6 0.500006 129.2 0.500006 129.8 1.80001C130.6 3.70001 131.3 5.70001 130.7 7.80001C130.591 8.15618 130.57 8.5336 130.64 8.89955C130.71 9.26549 130.867 9.6089 131.1 9.90001C131.7 10.7 132.2 11.5 132.7 12.2C133.38 13.0638 133.822 14.0913 133.98 15.1795C134.138 16.2678 134.007 17.3784 133.6 18.4C133.233 19.3918 133.163 20.4692 133.4 21.5C133.6 22.49 133.6 23.51 133.4 24.5C133.319 25.2414 133.019 25.9419 132.538 26.5119C132.057 27.0819 131.417 27.4956 130.7 27.7C129.421 27.9434 128.279 28.6569 127.5 29.7C127.405 29.8536 127.273 29.9803 127.115 30.0679C126.958 30.1555 126.78 30.201 126.6 30.2C125.4 30.4 122.4 27.7 122.4 26.5V25.9C122.5 22.3 122.3 22 119 20.5C118.309 20.2564 117.69 19.8439 117.2 19.3C116.6 18.5 115.8 18.6 114.9 18.9C114 19.2 113.5 19.8 113.6 20.8C113.901 23.2209 114.002 25.6626 113.9 28.1C113.907 28.3782 113.975 28.6514 114.1 28.9C117.2 33.4 118.4 38.7 119.9 43.8C121.1 47.7 123.3 49.8 127.3 50.1C127.94 50.1511 128.575 50.2514 129.2 50.4C130.022 50.532 130.785 50.9076 131.391 51.478C131.997 52.0485 132.418 52.7877 132.6 53.6C133.3 55.7 132.9 56.2 130.8 56.2H124.3C123.458 56.2426 122.633 55.9556 122 55.4C120.988 54.5459 119.838 53.8696 118.6 53.4C117.231 52.8947 116.046 51.9887 115.2 50.8C114.029 49.1635 112.688 47.6551 111.2 46.3C108.4 43.4 105.4 40.6 102.8 37.6C100.821 35.5558 99.6789 32.8443 99.5999 30C99.5999 29.1 99.3999 28.7 98.3999 29.1C98.1005 29.29 97.7545 29.3938 97.3999 29.4C94.5999 29.4 93.1999 31.1 92.1999 33.6C91.2999 35.7 90.0999 37.7 88.9999 39.8C88.3762 41.1145 88.0355 42.5454 87.9999 44C87.9999 46.4 88.5999 47.2 90.7999 48C92.1999 48.5 93.4999 49 94.1999 50.4C94.9999 52 94.7999 52.4 93.0999 52.5H86.2999C85.9079 52.5388 85.5136 52.4535 85.1727 52.2562C84.8317 52.0588 84.5614 51.7593 84.3999 51.4L82.5999 48.4C82.0693 47.6172 81.7296 46.721 81.6081 45.7832C81.4865 44.8454 81.5865 43.8922 81.8999 43C82.3327 41.2635 82.3669 39.4516 81.9999 37.7C81.7478 36.4801 81.7696 35.2195 82.0635 34.009C82.3575 32.7986 82.9164 31.6684 83.6999 30.7C84.2999 30 84.2999 29.7 83.2999 29.5C79.2108 28.6314 75.2466 27.254 71.4999 25.4C71.4734 25.4 71.448 25.3895 71.4292 25.3707C71.4105 25.352 71.3999 25.3265 71.3999 25.3C68.1999 24.1 67.5999 24.3 66.6999 27.6C65.8999 30.4 65.0999 33.2 64.4999 36.1C63.7999 39.3 64.5999 42.3 65.5999 45.3C65.9999 46.5 67.1999 46.4 68.0999 46.7C70.0999 47.3 71.7999 48.1 72.5999 50.2C73.2999 51.8 73.1999 52 71.4999 52C69.7999 52 68.0999 51.9 66.2999 52C64.781 52.0275 63.2985 51.5334 62.0999 50.6C57.2999 47.4 55.8999 42.5 55.4999 37.2C55.2999 33.9 53.4999 31.3 51.3999 28.8C50.9999 28.3 50.5999 28.1 49.9999 28.5C47.8534 29.6836 45.6124 30.687 43.2999 31.5C38.4742 33.204 34.2395 36.2585 31.0999 40.3C29.9276 41.775 29.1683 43.5351 28.8999 45.4C28.5999 47.2 29.0999 48 30.8999 48.5C32.6999 49 33.5999 50 33.7999 51.9C33.8999 52.7 33.5999 53.1 32.7999 53.1H24.6999C24.4348 53.0812 24.1782 52.9987 23.9518 52.8594C23.7255 52.7201 23.5362 52.5282 23.3999 52.3C22.1438 50.7448 21.4716 48.799 21.4999 46.8C21.4474 43.3449 21.749 39.8936 22.3999 36.5C22.5334 35.4837 22.9128 34.5153 23.5053 33.6788C24.0978 32.8424 24.8855 32.1631 25.7999 31.7C31.6999 28.9 34.7999 23.6 37.5999 18.1C38.1999 17 37.6999 16.8 36.6999 16.9C33.9013 17.2885 31.2496 18.3905 28.9999 20.1C26.0541 22.2488 23.2791 24.6226 20.6999 27.2C17.9496 29.9937 14.3026 31.7286 10.3999 32.1C3.09992 32.5 -0.300081 28.4 -8.06041e-05 21.8C0.0669819 19.5496 0.915567 17.3928 2.39992 15.7C2.91594 15.031 3.61965 14.531 4.42119 14.2638C5.22272 13.9966 6.0857 13.9744 6.89992 14.2C8.39992 14.6 8.79992 15.4 8.19992 16.9C7.89992 17.5 7.49992 18 7.19992 18.6C6.76852 19.213 6.43144 19.8871 6.19992 20.6C5.09992 23.6 6.59992 25.7 9.69992 26C12.9999 26.3 15.6999 24.9 18.1999 22.9C21.2118 20.4882 23.9006 17.6986 26.1999 14.6C27.9192 12.3374 30.084 10.4513 32.5607 9.05813C35.0375 7.66497 37.7735 6.79434 40.5999 6.50001C42.8999 6.20001 44.8999 5.20001 47.0999 4.60001C51.2144 3.34561 55.4989 2.73836 59.7999 2.80001C61.792 2.88297 63.7765 2.5066 65.5999 1.70001C70.4999 -0.299994 75.5999 -0.299994 80.6999 0.700006C84.6999 1.50001 88.6999 2.50001 92.5999 3.50001C94.9209 3.93248 97.3074 3.8643 99.5999 3.30001C103.989 2.18754 108.478 1.51753 113 1.30001C115.962 1.15587 118.915 1.73954 121.6 3.00001C123.6 3.90001 123.6 3.90001 123.1 5.80001Z" fill="black"/>
</g>

</symbol><symbol id="icon-sitting-cat" viewBox="0 0 70 97">
<g clip-path="url(#clip0)">
<path d="M54.84 0H54.46C53.818 0.362938 53.307 0.919413 53 1.59C52.4377 2.67211 52.0047 3.81665 51.71 5C51.6468 5.35582 51.4671 5.68054 51.1992 5.92311C50.9313 6.16567 50.5903 6.31232 50.23 6.34C49.1279 6.52999 48.0837 6.96931 47.1773 7.62443C46.2709 8.27955 45.5262 9.13313 45 10.12C44.2766 11.4013 43.6579 12.739 43.15 14.12C41.73 17.8 40.64 21.6 39.3 25.31C38.67 27 38.64 27 36.74 27C34.47 27 34.63 26.65 34.6 29.15C34.6 29.94 34.84 30.34 35.68 30.3C35.94 30.3 36.33 30.17 36.43 30.51C36.53 30.85 36.19 31 35.99 31.2C34.8043 32.4036 33.3037 33.2492 31.66 33.64C29.76 34.15 27.82 34.55 25.97 35.17C21.22 36.76 16.83 38.98 13.41 42.74C11.4103 45.0754 9.80885 47.7242 8.67 50.58C5 59.22 3.22 68.32 1.84 77.51C1.19 81.82 0.73 86.15 0.38 90.51C0.2 92.65 0 94.82 0 97H33.33C33.3853 96.5599 33.3051 96.1133 33.1 95.72C32.7794 94.9221 32.2586 94.2204 31.5877 93.6827C30.9167 93.1449 30.1185 92.7892 29.27 92.65C28.57 92.49 28.49 92.28 28.92 91.73C29.6214 90.7939 30.159 89.7458 30.51 88.63C32.14 83.82 32.77 78.8 33.56 73.83C34.0063 70.0338 35.1739 66.3579 37 63C38.4244 60.5284 40.3243 58.3634 42.59 56.63C43.42 56 43.45 56 43.59 57.07C43.69 57.78 43.71 58.51 43.76 59.23C44.0601 63.9544 43.9999 68.6948 43.58 73.41C43.2024 77.0649 43.1522 80.7462 43.43 84.41C43.8275 88.6636 44.5869 92.8755 45.7 97H59C58.8264 95.9175 58.328 94.9132 57.5708 94.1203C56.8136 93.3274 55.8334 92.7833 54.76 92.56C53.5066 92.3608 52.2252 92.429 51 92.76C50.4 92.9 50.15 92.76 50.1 92.11C49.6863 86.8159 50.0229 81.4899 51.1 76.29C52.4338 70.287 53.4552 64.2189 54.16 58.11C54.4224 55.643 55.1992 53.2584 56.44 51.11C57.63 48.99 58.67 46.79 59.84 44.66C60.3045 43.8855 60.5841 43.0143 60.657 42.1141C60.7298 41.2139 60.594 40.3091 60.26 39.47C59.99 38.76 59.73 38.04 59.4 37.36C58.4 35.41 57.4 33.48 56.48 31.51C55.99 30.51 56.1 30.39 57.19 30.36C58.82 30.36 58.82 30.36 58.85 28.72C58.85 28.5 58.85 28.28 58.85 28.06C58.85 27.37 58.59 26.99 57.85 27.06C57.35 27.06 56.85 27.06 56.33 27.06C55.64 27.06 55.44 26.77 55.61 26.06C55.9473 24.9058 56.611 23.8737 57.5211 23.0877C58.4312 22.3018 59.549 21.7956 60.74 21.63C62.9557 21.4379 65.1878 21.5829 67.36 22.06C67.6107 22.139 67.8823 22.1161 68.1162 21.9963C68.3502 21.8766 68.5275 21.6695 68.61 21.42C69.01 20.42 69.45 19.42 69.9 18.42C70.002 18.2426 70.0471 18.0381 70.0292 17.8343C70.0113 17.6304 69.9313 17.437 69.8 17.28C66.6 13.22 63.13 9.43 58.4 7C58.1715 6.90163 57.9712 6.7476 57.8175 6.55196C57.6638 6.35633 57.5615 6.12531 57.52 5.88C57.2523 4.45051 56.8264 3.05525 56.25 1.72C55.9795 1.00861 55.4845 0.404782 54.84 0V0Z" fill="black"/>
</g>

</symbol><symbol id="icon-tub" viewBox="0 0 29 31">
  <g clip-path="url(#clip0)" fill="#fff">
    <path d="M20.776 18.473c-1.706 0-3.088 1.479-3.088 3.301 0 1.824 1.383 3.302 3.088 3.302 1.706 0 3.088-1.478 3.088-3.302 0-1.823-1.383-3.3-3.088-3.3zm0 5.013c-.884 0-1.6-.766-1.6-1.71 0-.947.716-1.713 1.6-1.713.884 0 1.602.766 1.602 1.712 0 .945-.718 1.711-1.602 1.711zM11.607-.01c-1.76 0-3.187 1.525-3.187 3.407 0 1.882 1.426 3.407 3.187 3.407 1.76 0 3.187-1.524 3.187-3.407S13.367-.01 11.607-.01zm0 5.476c-1.07 0-1.936-.926-1.936-2.07 0-1.142.867-2.069 1.935-2.069 1.07 0 1.936.927 1.936 2.07 0 1.143-.866 2.069-1.936 2.069zM8.227 17.61c-1.294 0-2.341 1.12-2.341 2.503s1.047 2.503 2.34 2.503c1.295 0 2.342-1.12 2.342-2.503 0-1.382-1.047-2.503-2.341-2.503zM8 19.5c-.459 0 1.158 1.104 1.158.613 0-.49-1.617.387-1.158.387.459 0 1.057-.877 1.057-.388 0 .49-.598-.612-1.057-.612zM18.5 9.763s3.04-.839 6.178 1.494c.907.76 1.765 1.336 1.152 2.122-.343.34-.637.657-1.716-.524-1.053-.76-2.72-1.898-5.614-1.442-1.128.237-1.961.551-3.556 2.15-1.593 1.598-3.972 2.725-6.497 2.489-2.525-.236-3.849-1.258-5.246-2.542-.294-.42-.294-.865-.123-1.127.171-.262.833-.524 1.201-.132.368.394 2.109 1.966 3.825 2.07 1.716.105 3.433.21 5.737-1.965 2.306-2.174 3.458-2.331 4.66-2.593z"/>
    <mask id="a">
      <path d="M28.646 26.816V8.157c0-.578-.374-.65-.524-.655h-.506c-.493 0-.536.557-.538.739V8.3c.002 3.609.01 18.254-.002 18.54a2.681 2.681 0 01-.82 1.887c-.809.695-1.618.603-1.618.603s-20.177 0-20.655-.026c-.38-.066-1.042-.21-1.606-1.01-.564-.798-.453-1.847-.453-1.847V8.315c0-.839-.675-.812-.675-.812H.942c-.536 0-.585.588-.588.776v18.537c0 1.337.453 2.398 1.548 3.337 1.094.939 2.375.856 2.375.856s19.723 0 20.581-.002c.859-.003 1.986-.417 2.916-1.556.93-1.138.872-2.635.872-2.635z"/>
    </mask>
    <path d="M28.646 26.816V8.157c0-.578-.374-.65-.524-.655h-.506c-.493 0-.536.557-.538.739V8.3c.002 3.609.01 18.254-.002 18.54a2.681 2.681 0 01-.82 1.887c-.809.695-1.618.603-1.618.603s-20.177 0-20.655-.026c-.38-.066-1.042-.21-1.606-1.01-.564-.798-.453-1.847-.453-1.847V8.315c0-.839-.675-.812-.675-.812H.942c-.536 0-.585.588-.588.776v18.537c0 1.337.453 2.398 1.548 3.337 1.094.939 2.375.856 2.375.856s19.723 0 20.581-.002c.859-.003 1.986-.417 2.916-1.556.93-1.138.872-2.635.872-2.635z"/>
    <path d="M28.646 26.816h-20v.387l.015.387 19.985-.774zm-.524-19.314l.71-19.987-.355-.013h-.355v20zm-1.044.739l-20-.15v.15h20zm0 .06h-20v.008l20-.008zm-.002 18.54l-19.985-.758v.013l19.985.745zm-.82 1.887l13.039 15.165.431-.37.41-.396-13.88-14.399zm-1.618.603l2.26-19.872-1.127-.128h-1.133v20zm-20.655-.026L.588 49.015l1.134.195 1.148.064 1.113-19.97zm-1.606-1.01l-16.344 11.528.004.006 16.34-11.533zm-.453-1.847l19.89 2.098.11-1.046v-1.052h-20zM1.249 7.503v20h.388l.388-.015-.776-19.985zm-.895.776l-19.998-.289-.002.145v.144h20zm1.548 21.874L-11.124 45.33 1.903 30.153zm2.375.856v-20h-.643l-.64.041 1.283 19.96zm23.497-1.558l15.49 12.654.005-.008-15.495-12.646zm20.872-2.635V8.157h-40v18.659h40zm0-18.659c0-4.97-1.859-11.419-7.618-16.084-4.89-3.96-10.03-4.481-12.196-4.558l-1.42 39.974a19.461 19.461 0 01-11.56-4.332c-5.535-4.483-7.206-10.608-7.206-15h40zM28.122-12.498h-.506v40h.506v-40zm-.506 0a20.47 20.47 0 00-12.283 4.083A20.526 20.526 0 008.914-.38 21.134 21.134 0 007.079 8.09l39.999.299c-.006.733-.014 3.914-1.667 7.598a19.474 19.474 0 01-6.096 7.61 19.53 19.53 0 01-11.699 3.904v-40zM7.078 8.241V8.292h40V8.29v-.001-.001-.001-.001-.001-.001-.001-.001-.001-.001-.001-.001-.001-.001-.001-.001-.001-.001-.001-.001-.001-.001-.001-.001-.001-.001-.001-.001-.001-.001-.001-.001-.001-.001-.001-.001-.001-.001-.001-.001-.001-.001-.001-.001-.001-.001-.001-.001-.001h-40zm0 .05V8.302h40V8.3v-.001-.001-.001-.001-.001-.001-.001-.001h-40zm0 .018l.004 10.511a8359.273 8359.273 0 01-.002 7.252c-.002.788-.006.45.01.011L47.063 27.6c.02-.51.018-1.37.018-1.45l.002-1.808v-5.528c0-4.15-.003-8.719-.004-10.52l-40 .016zm.012 17.787c.05-1.35.384-7.042 5.285-11.767l27.761 28.798c6.396-6.166 6.852-13.536 6.927-15.54L7.09 26.096zm6.126-12.533a17.513 17.513 0 017.807-3.843 17.962 17.962 0 014.628-.362 19.227 19.227 0 011.172.093l.037.004.019.002c.01.001.019.002-2.241 19.874-2.26 19.872-2.25 19.873-2.241 19.874l.018.003c.013 0 .025.002.038.004a14.8 14.8 0 00.553.053 20.798 20.798 0 002.275.064 22.044 22.044 0 003.983-.468 22.487 22.487 0 0010.03-4.968l-26.078-30.33zm11.422 15.768v-20h-.001-.865a17598.02 17598.02 0 01-16.322-.01l-2.357-.007c-1.071-.005-.613-.013.002.022L2.87 49.274c.97.054 7.17.051 11.606.054l6.997.003h3.164v-20zM7.377 9.595c.432.074 2.526.427 4.938 1.653a17.618 17.618 0 016.401 5.514L-13.963 39.83c4.995 7.076 11.877 8.725 14.551 9.186l6.789-39.42zm11.344 7.173c2.348 3.33 2.908 6.51 3.08 7.955a16.586 16.586 0 01.049 3.439 21.707 21.707 0 01-.027.29l-.005.047-.002.024a.58.58 0 00-.002.012c0 .005 0 .011-19.89-2.087-19.89-2.098-19.89-2.092-19.891-2.086l-.002.012-.002.024-.005.05a31.336 31.336 0 00-.03.31 21.677 21.677 0 00-.077 1.585c-.011.81.016 1.863.16 3.08.257 2.169 1.043 6.27 3.956 10.4L18.72 16.768zm3.203 9.68V8.315h-40v18.133h40zm0-18.133c0-6.89-3.412-14.004-10.265-17.999a20.69 20.69 0 00-11.136-2.8H.498c-.012.001-.024.002.751 19.987.776 19.985.763 19.985.751 19.985l-.024.001-.05.002a28.652 28.652 0 01-.3.008 19.375 19.375 0 01-10.112-2.626 19.387 19.387 0 01-7.239-7.434 19.028 19.028 0 01-2.351-9.124h40zM1.248-12.497H.942v40h.307v-40zm-.307 0c-4.037 0-8.32 1.191-12.061 3.905a20.562 20.562 0 00-6.553 7.946 21.166 21.166 0 00-1.972 8.636l39.996.578c-.011.758-.045 3.996-1.784 7.718a19.438 19.438 0 01-6.2 7.5A19.477 19.477 0 01.942 27.503v-40zM-19.646 8.279V26.816h40v-.007-.007-.008-.008-.008-.008-.009-.009-.01-.009-.01-.01-.01-.011-.01-.012-.012-.012-.012-.012-.012-.013-.014-.013-.014-.014-.014-.014-.015-.015-.015-.016-.016-.016-.016-.016-.017-.017-.018-.017-.018-.018-.018-.019-.019-.019-.019-.02-.02-.02-.02-.02-.02-.022-.021-.021-.022-.022-.022-.023-.022-.023-.023-.023-.024-.023-.024-.024-.025-.024-.025-.025-.026-.025-.026-.026-.026-.026-.027-.026-.027-.028-.027-.028-.027-.028-.029-.028-.029-.028-.03-.028-.03-.03-.03-.03-.03-.03-.03-.031-.03-.032-.031-.032-.031-.032-.032-.033-.032-.032-.033-.033-.033-.033-.034-.034-.033-.034-.034-.035-.034-.035-.034-.035-.035-.036-.035-.036-.036-.035-.037-.036-.036-.037-.036-.037-.037-.037-.038-.037-.038-.037-.038-.038-.038-.039-.038-.039-.038-.04-.038-.04-.039-.04-.039-.04-.04-.039-.04-.04-.04-.04-.041-.041-.04-.042-.04-.042-.041-.042-.041-.042-.041-.042-.042-.042-.042-.043-.042-.043-.042-.043-.043-.043-.043-.043-.043-.043-.044-.043-.044-.043-.044-.044-.044-.044-.044-.044-.044-.045-.044-.045-.045-.044-.045-.045-.045-.045-.045-.045-.046-.045-.045-.046-.045-.046-.046-.045-.046-.046-.046-.046-.046-.046-.046-.046-.047-.046-.047-.046-.047-.046-.047-.046-.047-.047-.047-.047-.047-.047-.046-.047-.048-.047-.047-.047-.047-.047-.048-.047-.047-.048-.047-.048-.047-.048-.047-.048-.047-.048-.048-.047-.048-.048-.047-.048-.048-.048-.047-.048-.048-.048-.048-.047-.048-.048-.048-.048-.048-.047-.048-.048-.048-.048-.048-.048-.047-.048-.048-.048-.048-.048-.047-.048-.048-.048-.047-.048-.048-.048-.047-.048-.047-.048-.048-.047-.048-.047-.048-.047-.047-.048-.047-.048-.047-.047-.047-.048-.047-.047-.047-.047-.047-.047-.047-.046-.047-.047-.047-.046-.047-.046-.047-.046-.047-.046-.046-.047-.046-.046-.046-.046-.046-.046-.046-.045-.046-.045-.046-.046-.045-.045-.045-.046-.045-.045-.045-.044-.045-.045-.044-.045-.044-.045-.044-.044-.044-.044-.044-.044-.044-.043-.044-.044-.043-.043-.043-.043-.043-.043-.043-.043-.042-.042-.043-.042-.042-.042-.042-.042-.042-.041-.042-.041-.041-.041-.041-.041-.04-.042-.04-.04-.04-.04-.04-.04-.04-.04-.04-.039-.039-.04-.038-.039-.039-.038-.038-.039-.038-.038-.037-.038-.038-.037-.037-.037-.037-.037-.037-.036-.037-.036-.036-.036-.035-.036-.035-.035-.036-.034-.035-.035-.034-.034-.034-.034-.034-.034-.033-.033-.033-.033-.033-.032-.032-.033-.032-.031-.032-.031V9.6v-.03-.031-.031-.03-.03-.03-.03-.03-.03-.03-.028-.03-.028-.029-.028-.028V9.1v-.028-.027-.027-.028-.026-.027-.027-.026-.026-.026-.025-.026-.025-.025-.025-.024-.024-.025-.023-.024-.023-.024-.023-.022-.023-.022-.022-.022-.022-.02-.022-.02-.022-.02h-40zm0 18.537c0 7.063 2.92 13.705 8.522 18.514l26.052-30.354c1.294 1.111 2.854 2.871 3.993 5.373a15.715 15.715 0 011.433 6.467h-40zm8.523 18.514A23.586 23.586 0 00-.643 50.5a23.616 23.616 0 005.087.51 21.335 21.335 0 00.991-.034l.063-.004.03-.002h.016c.008-.001.016-.002-1.267-19.96C2.994 11.05 3 11.05 3.009 11.05l.015-.002.03-.001a537.278 537.278 0 01.185-.01 19.742 19.742 0 01.755-.025c.342-.004.702.002 1.077.021.737.037 1.607.13 2.571.334 1.88.398 4.642 1.34 7.285 3.609l-26.05 30.354zm15.4-14.32v20H7.372l6.875-.001c5.007 0 10.202 0 10.668-.002l-.113-40H23.72l-2.443.001-7.033.001H4.278v20zm20.638 19.997c7.104-.02 13.8-3.336 18.348-8.902L12.286 16.799c2.687-3.29 7.129-5.777 12.516-5.792l.113 40zm18.354-8.91c3.245-3.977 4.434-8.096 4.913-10.529a24.742 24.742 0 00.464-4.58 22.37 22.37 0 00-.013-.895l-.001-.026v-.013c-.001-.006-.001-.013-19.986.762-19.985.774-19.986.767-19.986.761v-.013l-.001-.025a23.424 23.424 0 01-.01-.354 17.822 17.822 0 01.024-1.264c.033-.577.105-1.28.262-2.076.275-1.4 1.028-4.201 3.344-7.039l30.99 25.291z" mask="url(#a)"/>
  </g>
  
</symbol><symbol id="icon-vkontakte" viewBox="0 0 29 18">
<path d="M0.0914307 2.48988C0.0914307 1.63485 0.643326 1.17381 1.74712 1.10674L6.00052 1.13189C6.28599 1.13189 6.47629 1.25763 6.57145 1.50911C7.00916 2.76651 7.4992 3.85206 8.04158 4.76577C8.58397 5.67948 9.29287 6.7315 10.1683 7.92183C10.2444 8.07272 10.3681 8.14816 10.5394 8.14816C10.6726 8.14816 10.7773 8.08949 10.8534 7.97213L10.939 7.6955L10.9676 3.34491C10.9676 3.04313 10.8867 2.84195 10.7249 2.74136C10.5632 2.64077 10.2634 2.56532 9.82573 2.51503C9.48318 2.46473 9.3119 2.28031 9.3119 1.96177C9.3119 1.89471 9.32141 1.84442 9.34044 1.81089C9.74009 0.721143 10.8819 0.176271 12.766 0.176271L14.3646 0.151123C15.0878 0.151123 15.6872 0.310393 16.163 0.628934C16.6388 0.947474 16.8767 1.45043 16.8767 2.13781V7.84639C17.0099 7.93022 17.1336 7.97213 17.2478 7.97213C17.5332 7.97213 17.7806 7.82124 17.99 7.51947C20.0834 4.93761 21.2157 3.21079 21.387 2.33899C21.387 2.32223 21.406 2.28031 21.4441 2.21325C21.5773 1.96177 21.7962 1.74383 22.1007 1.55941C22.4051 1.37499 22.6716 1.24925 22.9 1.18219C22.9761 1.14866 23.0617 1.13189 23.1569 1.13189H27.5816L27.867 1.15704C28.2476 1.15704 28.5426 1.31631 28.752 1.63485C28.8281 1.73544 28.8804 1.84442 28.909 1.96177C28.9375 2.07913 28.9565 2.19649 28.966 2.31384C28.9756 2.4312 28.9803 2.49826 28.9803 2.51503V2.69106C28.8471 3.37844 28.5093 4.11192 27.9669 4.89151C27.4245 5.67109 26.7347 6.51355 25.8973 7.41887C25.06 8.3242 24.5366 8.91937 24.3273 9.20438C24.156 9.40556 24.0704 9.58998 24.0704 9.75763C24.0704 9.89175 24.1465 10.0426 24.2987 10.2103L28.4665 14.8375C28.6949 15.1058 28.809 15.3992 28.809 15.7177C28.809 16.1033 28.6378 16.4218 28.2952 16.6733C27.9527 16.9248 27.5435 17.0673 27.0677 17.1008L26.5824 17.126H22.2434C22.2244 17.126 22.1863 17.1302 22.1292 17.1385C22.0721 17.1469 22.034 17.1511 22.015 17.1511C21.5963 17.1511 21.2062 16.9919 20.8446 16.6733C20.7114 16.5392 19.8169 15.55 18.1613 13.7059C18.0661 13.5885 17.9329 13.4795 17.7616 13.3789C17.6855 13.6472 17.5856 14.0328 17.4619 14.5357C17.3382 15.0387 17.2478 15.3992 17.1907 15.6171L17.105 16.0446C16.9147 16.6314 16.5151 16.9835 15.9061 17.1008L15.5065 17.126H12.7089C11.1293 17.126 9.55454 16.4889 7.98449 15.2147C6.41444 13.9406 5.0014 12.2934 3.74536 10.2732C2.48932 8.25295 1.31892 5.90162 0.234162 3.21917C0.139008 3.00122 0.0914307 2.75813 0.0914307 2.48988ZM17.2478 9.00319C16.8481 9.00319 16.4865 8.90679 16.163 8.71399C15.8395 8.52119 15.6777 8.25714 15.6777 7.92183V2.13781C15.6777 1.8025 15.5826 1.5636 15.3923 1.42109C15.202 1.27859 14.8689 1.20734 14.3931 1.20734L12.766 1.25763C11.9477 1.25763 11.3292 1.38337 10.9105 1.63485C11.7479 1.98692 12.1665 2.55694 12.1665 3.34491V7.77095C12.1285 8.19008 11.9382 8.53796 11.5956 8.81458C11.253 9.09121 10.8724 9.22953 10.4538 9.22953C9.88282 9.22953 9.44511 8.98643 9.14062 8.50024C7.65621 6.52193 6.55242 4.64422 5.82924 2.8671L5.57233 2.21325L1.77566 2.18811C1.52826 2.18811 1.39029 2.20068 1.36174 2.22583C1.3332 2.25098 1.31892 2.32223 1.31892 2.43958C1.31892 2.59047 1.33795 2.74974 1.37602 2.9174L1.97549 4.32568C3.57408 7.96375 5.31065 10.8306 7.18519 12.9263C9.05974 15.0219 10.901 16.0698 12.7089 16.0698H15.5635C15.6777 16.0698 15.7634 16.0404 15.8205 15.9817C15.8776 15.9231 15.9251 15.8099 15.9632 15.6422L16.0203 15.3908L16.5627 13.1778C16.7149 12.876 16.8481 12.6748 16.9623 12.5742C17.1717 12.3898 17.4191 12.2976 17.7045 12.2976C18.1613 12.2976 18.6275 12.5407 19.1033 13.0269L21.5297 15.7428C21.682 15.9608 21.8437 16.0698 22.015 16.0698H26.7252C27.2961 16.0698 27.5816 15.944 27.5816 15.6925C27.5816 15.6087 27.553 15.5249 27.4959 15.4411L23.3567 10.8893C23.0332 10.5372 22.8714 10.16 22.8714 9.75763C22.8714 9.35527 23.0237 8.96966 23.3281 8.60083C23.5755 8.26552 24.0561 7.70808 24.7697 6.92849C25.4834 6.1489 26.1067 5.41961 26.6395 4.74062C27.1724 4.06163 27.5245 3.4455 27.6957 2.89225L27.7814 2.56532C27.7623 2.53179 27.7528 2.47731 27.7528 2.40186C27.7528 2.32642 27.7433 2.26355 27.7243 2.21325H23.2425C22.957 2.31384 22.7287 2.46473 22.5574 2.66592L22.3861 3.14373C21.9103 4.30053 20.6638 6.08603 18.6465 8.50024C18.2469 8.83554 17.7806 9.00319 17.2478 9.00319Z" fill="#666666"/>
</symbol><symbol id="logo-desktop" viewBox="0 0 202 59">
  <g clip-path="url(#clip0)">
    <path d="M59.883 23.806A25.432 25.432 0 0051.83 13.43a25.725 25.725 0 00-12.193-5.02 25.803 25.803 0 00-13.093 1.671 25.59 25.59 0 00-10.515 7.916 25.296 25.296 0 00-5.144 12.06 25.212 25.212 0 001.595 12.997 25.423 25.423 0 007.909 10.484 25.719 25.719 0 0012.122 5.184 113.04 113.04 0 01-1.69-6.794 32.41 32.41 0 004.76 2.529s.12 2.142.28 4.533c1.789.03 3.575-.126 5.33-.466a2.104 2.104 0 010-.754c.29-1.855 1.09-5.198 1.25-7.35a15.114 15.114 0 002.9-3.68l-.06.436c-.55 4.226-1.7 8.74-2.4 9.989a5.536 5.536 0 01-.83 1.14 25.73 25.73 0 009.941-4.727 25.48 25.48 0 007.021-8.43 25.252 25.252 0 00.87-21.341zm-1.47 3.76c-.44.426-1.35.714-1.5-.576a34.09 34.09 0 01-.19-2.192s-1.93-3.402-2.65-3.442c-.72-.04-5.831 3.442-7.181 4.96-1.17 1.28-1.4 1.19-1.4 3.442 0 1.696.22 8.104.1 13.004l-8.15 2.153c-2.562.729-5.168 1.299-7.801 1.706l-1-5.783h-.14l-2.57-13.064s-3.81-1.428-5.21-1.815a3.788 3.788 0 00-4 .625 5.032 5.032 0 00-1.285 1.722 4.995 4.995 0 00-.446 2.097c.212.46.373.943.48 1.438.05.476-1.2.426-2 .426s-.92-1.428-.29-3.104c.492-1.29 1.1-2.531 1.82-3.71a11.776 11.776 0 012.07-2.867s.14-.337 1.25-.238c1.11.1 7.28.427 7.28.427l.05-2.252a143.93 143.93 0 0120.242-1.33v1.816a22.671 22.671 0 018.14-1.984.916.916 0 01.77.387c.34.427 2.41 2.976 2.65 3.343a27.73 27.73 0 011.83 2.976 6.167 6.167 0 01-.87 1.825v.01z" fill="#FDC305"/>
    <path d="M56.463 21.495c.47.595.88 1.121 1 1.28a27.74 27.74 0 011.83 2.976c-.19.63-.48 1.226-.86 1.765-.44.427-1.35.714-1.5-.575-.15-1.29-.21-2.143-.21-2.143s-1.93-3.402-2.65-3.442c-.72-.04-5.83 3.442-7.18 4.96-1.17 1.28-1.4 1.19-1.4 3.442 0 1.488.17 6.596.13 11.14 1.81.198 4.47.694 5.27 1.864 0 0-.29-7.122 7.81-3.392 0 0 .28-9.711 11.46-7.221a43.671 43.671 0 00-13.7-10.654zM45.932 19.194a89.015 89.015 0 00-1.4-16.397s-.15-1.29-.87-.238a14.057 14.057 0 00-1.2 3.968 71.461 71.461 0 00-12.82.337c-.82-2.728-2.22-3.968-2.89-3.64-.67.327-.75 3.253-.75 3.253l-.33 14.046a143.942 143.942 0 0120.26-1.33z" fill="#F06351"/>
    <path d="M45.352 46.74c.13-1.062.2-2.47.24-4.028l-8.15 2.153a64.434 64.434 0 01-7.8 1.756l1.11 4.96c0 .108 0 .218.07.327a32.398 32.398 0 004.76 2.53 42.484 42.484 0 006.88-4.098v.06a15.115 15.115 0 002.89-3.66z" fill="#E55645"/>
    <path d="M32.002 16.09c-.05-.1 1 .674 1.41.912.41.238.61.416.61.585 0 .169-.26.337-.62.337s-.92-.119-1-.258c-.08-.139.6 0 .94 0h.29a8.052 8.052 0 01-1.63-1.577zM39.502 16.198s-1 1.27-1.09 1.33c-.09.059-.17.337.19.287a8.146 8.146 0 001.22-.278c.11-.06.07-.198-.12-.178-.19.02-.68.05-1 .109l.85-1.26s.03-.119-.05-.01zM36.362 22.259a2.293 2.293 0 001.09-.992c.28-.655 0-.903-.44-.992-.606-.11-1.23.01-1.75.337-.39.367-.34.724 0 .992a5.17 5.17 0 001.1.655z" fill="#000"/>
    <path d="M36.002 23.509c-.115.225-.271.427-.46.595-.285.227-.635.36-1 .377a2.193 2.193 0 01-1.54-.437 1.995 1.995 0 01-.53-.446 1.002 1.002 0 00-.36-.248s.75 4.077 2.57 4.731c1.82.655 2.16-.753 2.21-1.13a5.55 5.55 0 00-.82-3.214c0-.298-.02-.1-.07-.228z" fill="#F06351"/>
    <path d="M34.301 24.64a3.518 3.518 0 01-2.35-1.419.148.148 0 010-.198.14.14 0 01.155-.031.14.14 0 01.045.03 3.209 3.209 0 002.11 1.3 2.121 2.121 0 001.64-.992l.14-.188.1.218s.38.754 1 .794c.62.04 1.06-.417 1.63-1.28a.144.144 0 01.2-.04.143.143 0 01.04.199c-.666.972-1.296 1.438-1.89 1.398a1.557 1.557 0 01-1.12-.724 2.254 2.254 0 01-1.7.933z" fill="#000"/>
    <path d="M36.262 37.99c2.07 0 3.75-1.665 3.75-3.719s-1.68-3.72-3.75-3.72c-2.072 0-3.75 1.666-3.75 3.72 0 2.054 1.678 3.72 3.75 3.72z" fill="#FDC305"/>
    <path d="M41.232 31.246l-3.13 1.3 1.15-5.585-7.5 9.68 3.13-1.298-1.15 5.594 7.5-9.691zm-7.39 3.799l4.16-5.366-.81 3.967 2-.813-4.19 5.376.81-3.968-1.97.804zM32.441 33.587c.62 0 1.12-.498 1.12-1.111 0-.614-.5-1.111-1.12-1.111-.618 0-1.12.497-1.12 1.11 0 .614.502 1.112 1.12 1.112zM38.962 37.614c.436 0 .79-.35.79-.784a.787.787 0 00-.79-.783c-.436 0-.79.35-.79.783 0 .433.354.784.79.784zM39.922 35.462c.193 0 .35-.156.35-.348a.349.349 0 00-.35-.347.349.349 0 00-.35.347c0 .192.157.348.35.348z" fill="#111"/>
    <path d="M45.882 20.99a57.219 57.219 0 00-5.09 5.167 31.79 31.79 0 01-5.31 4.86c-.22-.525-1.63-1.507-1.63-1.507s-3.14-2.133-5.2-3.81a31.78 31.78 0 01-3.14-2.975l-2-.109a22.62 22.62 0 0012 8.769c.86-.14 3.28-1.855 5.09-3.254a57.44 57.44 0 006-5.862 6.314 6.314 0 001.14-1.984c-1.14.377-1.86.704-1.86.704z" fill="#F06351"/>
    <path d="M65.223 3.472l-8.46 9.364-1.22-1.974L63.693 0l1.53 3.472zM62.653 17.12l5.54-4.076-.78-3.71-5.4 4.771.64 3.016zM59.923 48.972l6.13 3.154 3.01-2.321-6.69-2.728-2.45 1.895zM1.95 5.922l3.07-3.333 9.29 8.927-1.22 2.262L1.95 5.922zM7.38 16.149l-4.7-3.105-2.4 3.839 5.15 2.38 1.95-3.114zM13.91 52.126l-4.55 3.323L12.16 59l4.02-3.988-2.27-2.886z" fill="#FDC305"/>
    <path d="M25.931 27.774s-3.81-1.428-5.21-1.815a3.788 3.788 0 00-4 .625 5.032 5.032 0 00-1.285 1.722 4.994 4.994 0 00-.445 2.097c.211.46.372.943.48 1.438.05.476-1.2.426-2 .426s-.92-1.428-.29-3.104c.491-1.29 1.1-2.531 1.82-3.71C9.55 28.27 0 34.777 0 34.777a46.196 46.196 0 018.19.238c5.25.526 5 4.632 5 4.632a38.924 38.924 0 015.63-1.1c2.121-.14 2.271 2.102 2.271 2.102l.53 3.83a18.248 18.248 0 012.65-2.342 6.095 6.095 0 014.38-1.29l-2.72-13.073z" fill="#F06351"/>
    <path d="M85.664 41.661a8.174 8.174 0 01-1.4-5.148v-7.44a8.301 8.301 0 011.38-5.197c.927-1.184 2.51-1.773 4.75-1.766 2.24.007 3.757.526 4.55 1.558a6.628 6.628 0 011.33 4.453v1.746h-4.14v-1.895a9.84 9.84 0 00-.13-1.488 1.66 1.66 0 00-.47-.942 1.565 1.565 0 00-1.15-.367 1.47 1.47 0 00-.868.137 1.455 1.455 0 00-.632.607 5.386 5.386 0 00-.34 2.182v9.444a4.707 4.707 0 00.39 2.182 1.476 1.476 0 001.45.724c.282.04.569-.01.82-.142.252-.132.455-.34.58-.592a5.75 5.75 0 00.31-2.172V35.56h4.14v1.716a7.147 7.147 0 01-1.23 4.572c-.88 1.092-2.4 1.627-4.56 1.627-2.16 0-3.85-.595-4.78-1.815zM101.915 22.398h4.74l4 20.83h-3.94l-.71-4.602h-3.32l-.8 4.573h-4l4.03-20.801zm3.65 13.61l-1.26-8.373-1.25 8.372h2.51zM113.725 25.532h-3.24v-3.134h10.72v3.134h-3.2V43.2h-4.29l.01-17.667z" fill="#111"/>
    <path d="M129.616 22.398h8.13v2.162h-5.2v6.874h4.22v2.054h-4.22v7.627h5.25V43.2h-8.18V22.398zM140.157 22.398h2l6 13.817V22.398h2.44v20.83h-1.87l-6-14.204v14.175h-2.48l-.09-20.801zM153.828 22.398h8.12v2.162h-5.2v6.874h4.26v2.054h-4.22v7.627h5.22V43.2h-8.18V22.398zM164.358 22.398h4.22a7.042 7.042 0 014.67 1.3c1 .862 1.49 2.27 1.49 4.225 0 2.645-.863 4.262-2.59 4.85l3 10.426h-2.84l-2.75-9.761h-2.27v9.76h-2.93v-20.8zm4 8.927a3.891 3.891 0 002.7-.754 3.536 3.536 0 00.82-2.688 5.76 5.76 0 00-.29-1.984 1.883 1.883 0 00-1-1.071 4.794 4.794 0 00-2.05-.347h-1.29v6.884l1.11-.04zM178.679 41.661a9.113 9.113 0 01-1.27-5.307v-6.943a13.27 13.27 0 01.5-3.968 4.443 4.443 0 011.74-2.39 5.947 5.947 0 013.36-.834 5.298 5.298 0 014.18 1.468 6.904 6.904 0 011.28 4.593v.774h-2.75v-.645a11.309 11.309 0 00-.18-2.301 1.98 1.98 0 00-.76-1.22 3.02 3.02 0 00-1.72-.407 2.534 2.534 0 00-1.81.555 2.53 2.53 0 00-.77 1.468 14.484 14.484 0 00-.17 2.47v7.727a7.39 7.39 0 00.59 3.432 2.85 2.85 0 004.47-.09 7.994 7.994 0 00.61-3.62v-1.467h-2.66v-2.054h5.3V43.2h-1.81l-.29-2.391a3.661 3.661 0 01-1.4 1.969 3.71 3.71 0 01-2.33.68 4.698 4.698 0 01-2.288-.375 4.656 4.656 0 01-1.822-1.42zM194.699 35.858l-4.53-13.46h2.72l3.21 10.038 3.16-10.038h2.75l-4.5 13.46v7.34h-2.8l-.01-7.34z" fill="#444"/>
  </g>
  
</symbol></svg>